<?xml version="1.0" standalone="no"?>
<!DOCTYPE svg PUBLIC "-//W3C//DTD SVG 20010904//EN"
 "http://www.w3.org/TR/2001/REC-SVG-20010904/DTD/svg10.dtd">
<svg version="1.0" xmlns="http://www.w3.org/2000/svg"
 width="260.000000pt" height="260.000000pt" viewBox="0 0 260.000000 260.000000"
 preserveAspectRatio="xMidYMid meet">
<metadata>
Created by potrace 1.14, written by Peter Selinger 2001-2017
</metadata>
<g transform="translate(0.000000,260.000000) scale(0.100000,-0.100000)"
fill="#000000" stroke="none">
<path d="M137 2590 c-46 -14 -93 -56 -116 -103 l-21 -44 2 -1156 3 -1155 30
-43 c17 -23 50 -53 74 -66 l45 -23 1157 2 1157 3 43 30 c23 17 53 50 66 74
l23 45 -2 1157 -3 1157 -30 43 c-16 23 -50 53 -74 66 l-44 23 -1141 -1 c-628
0 -1154 -5 -1169 -9z m408 -131 c63 -18 104 -69 163 -209 l53 -125 174 3 c164
3 175 2 195 -18 11 -11 20 -29 20 -40 0 -11 -32 -54 -72 -96 -57 -60 -69 -77
-57 -85 8 -5 20 -9 27 -9 23 0 101 -81 113 -118 33 -99 0 -211 -77 -265 -42
-30 -43 -31 -30 -61 7 -17 44 -104 81 -192 l68 -162 116 -4 c64 -2 117 -4 119
-3 1 1 36 87 76 191 l74 189 -139 5 c-94 3 -142 9 -151 18 -10 10 -13 81 -13
317 0 279 1 306 18 322 16 16 37 18 180 17 184 -1 209 -8 282 -75 l43 -40 20
53 c119 314 131 337 192 368 88 45 206 14 265 -69 58 -82 60 -75 -213 -711
-133 -311 -242 -569 -242 -573 0 -4 71 -7 158 -7 176 0 205 -8 210 -54 6 -52
-19 -66 -120 -66 l-88 0 0 -262 c0 -229 -2 -264 -17 -280 -21 -24 -68 -23 -93
2 -19 19 -20 33 -20 280 l0 260 -43 0 -44 0 -98 -229 c-90 -213 -96 -231 -81
-246 34 -34 14 -85 -34 -85 -22 0 -30 -12 -67 -90 -37 -78 -48 -92 -89 -116
-90 -53 -202 -35 -259 40 -13 17 -210 471 -439 1008 -366 859 -416 983 -416
1028 0 91 47 150 149 186 45 16 56 17 106 3z m168 -1391 c13 -11 239 -532 261
-604 8 -25 -27 -74 -53 -74 -25 0 -55 37 -81 103 l-24 57 -141 0 -142 0 -27
-64 c-35 -82 -57 -103 -94 -90 -19 7 -28 17 -30 37 -4 30 227 597 255 630 19
20 52 22 76 5z"/>
<path d="M810 2014 c0 -6 41 -106 47 -113 4 -6 50 37 85 82 l30 37 -81 0 c-45
0 -81 -3 -81 -6z"/>
<path d="M1410 1796 l0 -226 93 0 c53 0 102 5 116 13 33 17 115 226 108 278
-7 54 -35 106 -71 132 -26 19 -47 22 -138 26 l-108 3 0 -226z"/>
<path d="M919 1775 c-6 -5 65 -188 79 -205 2 -3 15 8 28 23 33 39 34 115 1
152 -21 25 -93 46 -108 30z"/>
<path d="M1263 948 c40 -101 62 -147 68 -141 9 9 59 133 59 145 0 4 -30 8 -66
8 -49 0 -65 -3 -61 -12z"/>
<path d="M654 834 c-9 -21 -29 -69 -45 -106 l-28 -68 89 0 c50 0 90 4 90 8 0
9 -79 194 -86 201 -2 2 -11 -13 -20 -35z"/>
</g>
</svg>
